<?xml version="1.0" encoding="utf-8"?>
<!-- Generator: Adobe Illustrator 17.0.0, SVG Export Plug-In . SVG Version: 6.00 Build 0)  -->
<!DOCTYPE svg PUBLIC "-//W3C//DTD SVG 1.1//EN" "http://www.w3.org/Graphics/SVG/1.1/DTD/svg11.dtd">
<svg version="1.1" id="Layer_1" xmlns="http://www.w3.org/2000/svg" xmlns:xlink="http://www.w3.org/1999/xlink" x="0px" y="0px"
	 width="3956px" height="1130px" viewBox="0 0 3956 1130" enable-background="new 0 0 3956 1130" xml:space="preserve">
<g>
	<defs>
		<rect id="SVGID_1_" width="3956" height="1130"/>
	</defs>
	<clipPath id="SVGID_2_">
		<use xlink:href="#SVGID_1_"  overflow="visible"/>
	</clipPath>
	<path clip-path="url(#SVGID_2_)" fill="#FFFFFF" d="M530.208,86.316c-264.387,0-478.698,214.311-478.698,478.67
		c0,264.387,214.311,478.697,478.698,478.697c264.359,0,478.669-214.31,478.669-478.697
		C1008.877,300.627,794.567,86.316,530.208,86.316 M530.208,924.016c-197.48,0-359.03-161.578-359.03-359.03
		s161.55-359.002,359.03-359.002c197.453,0,359.002,161.55,359.002,359.002S727.661,924.016,530.208,924.016"/>
	<path clip-path="url(#SVGID_2_)" fill="#FF004D" d="M490.845,574.73h78.727v59.073c-0.056,21.702-17.689,39.307-39.364,39.307
		s-39.335-17.605-39.363-39.307V574.73z"/>
	<path clip-path="url(#SVGID_2_)" fill="#FF004D" d="M490.845,535.616c0-22.006,17.827-39.446,39.363-39.446
		c21.702,0,39.364,17.66,39.364,39.363C569.572,535.672,573.308,535.616,490.845,535.616"/>
	<path clip-path="url(#SVGID_2_)" fill="#FF004D" d="M530.208,325.651c-131.654,0-239.362,107.71-239.362,239.335
		c0,131.653,107.708,239.335,239.362,239.335c131.626,0,239.335-107.682,239.335-239.335
		C769.543,433.361,661.834,325.651,530.208,325.651 M648.048,614.176c7.419,0,14.201,4.208,17.523,10.824l19.654,39.28
		c6.505,13.065-3.073,28.318-17.495,28.318c-7.197,0-14.09-3.958-17.522-10.823l-14.229-28.457h-29.757
		c-8.693,33.855-39.502,58.934-76.014,58.934c-36.539,0-67.322-25.079-76.013-58.934h-29.758l-14.256,28.457
		c-3.405,6.865-10.325,10.823-17.495,10.823c-14.449,0-24.028-15.253-17.494-28.318L394.846,625
		c3.294-6.616,10.103-10.824,17.494-10.824h39.363V574.73H412.34c-7.391,0-14.2-4.179-17.494-10.824l-19.654-39.251
		c-4.817-9.689-0.914-21.426,8.747-26.271c9.688-4.844,21.425-0.913,26.242,8.748l14.256,28.484c29.232,0,27.266,0.056,27.266-0.083
		c0-20.235,7.806-40.027,22.643-55.086l-19.847-33.08c-5.564-9.273-2.575-21.287,6.698-26.823
		c9.247-5.592,21.288-2.575,26.852,6.699l19.82,33.024c14.699-4.374,30.311-4.263,44.678,0l19.82-33.024
		c5.564-9.274,17.578-12.291,26.851-6.699c9.246,5.536,12.236,17.55,6.7,26.823l-19.849,33.08
		c13.979,14.172,22.644,33.633,22.644,55.086c0,0.139-2.103,0.083,27.266,0.083l14.229-28.484
		c4.844-9.661,16.581-13.592,26.269-8.748c9.662,4.845,13.565,16.582,8.748,26.271l-19.654,39.251
		c-3.322,6.645-10.104,10.824-17.523,10.824h-39.335v39.446H648.048z"/>
	<path clip-path="url(#SVGID_2_)" fill="#FFFFFF" d="M1169.487,708.695l33.469-51.488c29.864,21.625,61.27,32.953,87.016,32.953
		c22.654,0,32.953-8.238,32.953-20.596v-1.031c0-16.991-26.773-22.654-57.153-31.922c-38.616-11.327-82.382-29.349-82.382-82.898
		v-1.03c0-56.123,45.309-87.531,100.919-87.531c35.012,0,73.113,11.843,102.975,31.923l-29.862,54.065
		c-27.29-15.963-54.577-25.745-74.66-25.745c-19.049,0-28.833,8.238-28.833,19.05v1.03c0,15.447,26.26,22.655,56.123,32.953
		c38.616,12.873,83.413,31.408,83.413,81.867v1.03c0,61.273-45.827,89.076-105.553,89.076
		C1249.296,750.401,1206.042,737.529,1169.487,708.695"/>
	<path clip-path="url(#SVGID_2_)" fill="#FFFFFF" d="M1423.321,608.807v-1.03c0-78.779,56.123-143.655,136.445-143.655
		c92.166,0,134.386,71.569,134.386,149.833c0,6.179-0.514,13.387-1.03,20.595h-192.055c7.724,35.528,32.44,54.065,67.452,54.065
		c26.26,0,45.31-8.239,66.936-28.32l44.796,39.646c-25.746,31.925-62.819,51.489-112.761,51.489
		C1484.591,751.43,1423.321,693.248,1423.321,608.807 M1617.949,585.636c-4.633-35.012-25.229-58.696-58.183-58.696
		c-32.439,0-53.549,23.169-59.726,58.696H1617.949z"/>
	<path clip-path="url(#SVGID_2_)" fill="#FFFFFF" d="M1726.067,608.807v-1.03c0-78.779,60.242-143.655,144.682-143.655
		c52.005,0,84.442,17.507,110.188,46.341l-47.886,51.488c-17.506-18.535-35.012-30.378-62.816-30.378
		c-39.132,0-66.936,34.498-66.936,75.174v1.03c0,42.221,27.29,76.203,70.026,76.203c26.26,0,44.28-11.327,63.33-29.348
		l45.826,46.339c-26.773,29.35-57.666,50.46-112.762,50.46C1786.823,751.431,1726.067,687.584,1726.067,608.807"/>
	<path clip-path="url(#SVGID_2_)" fill="#FFFFFF" d="M2018.516,647.939V469.271h78.262v153.953c0,37.071,17.507,56.123,47.37,56.123
		c29.866,0,48.916-19.052,48.916-56.123V469.271h78.262v275.982h-78.262v-39.131c-18.023,23.17-41.193,44.279-80.839,44.279
		C2053.012,750.401,2018.516,711.27,2018.516,647.939"/>
	<path clip-path="url(#SVGID_2_)" fill="#FFFFFF" d="M2328.465,469.271h78.263v55.609c15.963-38.102,41.706-62.817,88.046-60.757
		v81.867h-4.118c-52.005,0-83.928,31.408-83.928,97.314v101.949h-78.263V469.271z"/>
	<path clip-path="url(#SVGID_2_)" fill="#FFFFFF" d="M2532.355,369.383h82.382v69.509h-82.382V369.383z M2534.414,469.271h78.263
		v275.982h-78.263V469.271z"/>
	<polygon clip-path="url(#SVGID_2_)" fill="#FFFFFF" points="2663.642,482.659 2691.962,482.659 2771.254,713.33 2850.547,481.629 
		2870.627,481.629 2949.922,713.33 3029.214,482.659 3056.504,482.659 2960.219,747.312 2938.593,747.312 2860.33,522.305 
		2781.551,747.312 2759.928,747.312 	"/>
	<path clip-path="url(#SVGID_2_)" fill="#FFFFFF" d="M3117.244,379.68h31.409v34.498h-31.409V379.68z M3120.334,482.659h25.229
		v262.594h-25.229V482.659z"/>
	<path clip-path="url(#SVGID_2_)" fill="#FFFFFF" d="M3209.404,712.299l14.933-20.081c28.833,22.141,60.755,34.498,94.222,34.498
		c35.53,0,63.333-19.565,63.333-49.945v-1.03c0-30.893-32.953-42.219-69.509-52.518c-42.737-12.358-90.106-25.229-90.106-72.084
		v-1.03c0-42.221,35.526-72.599,86.499-72.599c31.409,0,66.937,11.327,93.195,28.833l-13.385,21.11
		c-24.201-15.962-53.034-26.258-80.839-26.258c-36.041,0-59.727,19.565-59.727,45.824v1.03c0,29.349,35.527,40.162,73.115,50.975
		c42.22,11.841,86.5,27.288,86.5,73.629v1.03c0,46.854-40.16,76.718-90.619,76.718
		C3278.913,750.401,3237.207,734.955,3209.404,712.299"/>
	<path clip-path="url(#SVGID_2_)" fill="#FFFFFF" d="M3457.053,614.471v-1.03c0-76.204,53.55-136.96,124.606-136.96
		c73.629,0,120.482,59.726,120.482,137.475c0,4.633,0,6.178-0.514,10.298H3483.83c4.633,65.391,51.486,103.492,102.975,103.492
		c40.677,0,68.483-18.021,90.107-41.191l17.505,15.447c-26.773,28.834-58.182,49.429-108.641,49.429
		C3516.783,751.431,3457.053,696.338,3457.053,614.471 M3674.851,601.598c-3.604-53.033-33.98-101.947-94.223-101.947
		c-52.006,0-92.165,43.765-96.798,101.947H3674.851z"/>
	<path clip-path="url(#SVGID_2_)" fill="#FFFFFF" d="M3762.894,482.659h25.229v74.659c20.594-46.854,64.361-80.837,116.367-78.779
		v27.805h-2.577c-60.756,0-113.79,45.824-113.79,131.296v107.613h-25.229V482.659z"/>
</g>
</svg>
